<svg width="1280" height="300" viewBox="0 0 1280 300" fill="none" xmlns="http://www.w3.org/2000/svg">
<rect width="1280" height="300" fill="white"/>
<path d="M245.775 63.7V105H236.217V88.067H217.455V105H207.897V63.7H217.455V79.984H236.217V63.7H245.775ZM285.99 89.247C285.99 89.365 285.931 90.191 285.813 91.725H261.8C262.233 93.6917 263.256 95.2453 264.868 96.386C266.481 97.5267 268.487 98.097 270.886 98.097C272.538 98.097 273.994 97.861 275.252 97.389C276.55 96.8777 277.75 96.091 278.851 95.029L283.748 100.339C280.759 103.761 276.393 105.472 270.65 105.472C267.071 105.472 263.905 104.784 261.151 103.407C258.398 101.991 256.274 100.044 254.779 97.566C253.285 95.088 252.537 92.2757 252.537 89.129C252.537 86.0217 253.265 83.229 254.72 80.751C256.215 78.2337 258.241 76.2867 260.797 74.91C263.393 73.494 266.284 72.786 269.47 72.786C272.578 72.786 275.39 73.4547 277.907 74.792C280.425 76.1293 282.391 78.0567 283.807 80.574C285.263 83.052 285.99 85.943 285.99 89.247ZM269.529 79.748C267.445 79.748 265.694 80.338 264.278 81.518C262.862 82.698 261.997 84.3107 261.682 86.356H277.317C277.003 84.35 276.137 82.757 274.721 81.577C273.305 80.3577 271.575 79.748 269.529 79.748ZM292.118 61.222H301.322V105H292.118V61.222ZM309.864 61.222H319.068V105H309.864V61.222ZM342.714 105.472C339.371 105.472 336.362 104.784 333.687 103.407C331.052 101.991 328.987 100.044 327.492 97.566C325.998 95.088 325.25 92.2757 325.25 89.129C325.25 85.9823 325.998 83.17 327.492 80.692C328.987 78.214 331.052 76.2867 333.687 74.91C336.362 73.494 339.371 72.786 342.714 72.786C346.058 72.786 349.047 73.494 351.682 74.91C354.318 76.2867 356.383 78.214 357.877 80.692C359.372 83.17 360.119 85.9823 360.119 89.129C360.119 92.2757 359.372 95.088 357.877 97.566C356.383 100.044 354.318 101.991 351.682 103.407C349.047 104.784 346.058 105.472 342.714 105.472ZM342.714 97.92C345.074 97.92 347.002 97.1333 348.496 95.56C350.03 93.9473 350.797 91.8037 350.797 89.129C350.797 86.4543 350.03 84.3303 348.496 82.757C347.002 81.1443 345.074 80.338 342.714 80.338C340.354 80.338 338.407 81.1443 336.873 82.757C335.339 84.3303 334.572 86.4543 334.572 89.129C334.572 91.8037 335.339 93.9473 336.873 95.56C338.407 97.1333 340.354 97.92 342.714 97.92ZM369.408 94.026C371.06 94.026 372.417 94.557 373.479 95.619C374.541 96.6417 375.072 97.9987 375.072 99.69C375.072 100.477 374.974 101.263 374.777 102.05C374.58 102.837 374.148 104.017 373.479 105.59L370.116 114.086H364.275L366.871 104.705C365.888 104.312 365.101 103.682 364.511 102.817C363.96 101.912 363.685 100.87 363.685 99.69C363.685 97.9987 364.216 96.6417 365.278 95.619C366.379 94.557 367.756 94.026 369.408 94.026ZM438.67 72.786C442.642 72.786 445.789 73.966 448.11 76.326C450.47 78.6467 451.65 82.1473 451.65 86.828V105H442.446V88.244C442.446 85.7267 441.915 83.8583 440.853 82.639C439.83 81.3803 438.355 80.751 436.428 80.751C434.264 80.751 432.553 81.459 431.295 82.875C430.036 84.2517 429.407 86.3167 429.407 89.07V105H420.203V88.244C420.203 83.2487 418.197 80.751 414.185 80.751C412.061 80.751 410.369 81.459 409.111 82.875C407.852 84.2517 407.223 86.3167 407.223 89.07V105H398.019V73.258H406.81V76.916C407.99 75.5787 409.425 74.556 411.117 73.848C412.847 73.14 414.735 72.786 416.781 72.786C419.023 72.786 421.048 73.2383 422.858 74.143C424.667 75.0083 426.122 76.2867 427.224 77.978C428.522 76.326 430.154 75.0477 432.121 74.143C434.127 73.2383 436.31 72.786 438.67 72.786ZM490.829 73.258L476.492 106.947C475.037 110.605 473.228 113.181 471.064 114.676C468.94 116.171 466.364 116.918 463.335 116.918C461.683 116.918 460.051 116.662 458.438 116.151C456.826 115.64 455.508 114.932 454.485 114.027L457.848 107.478C458.556 108.107 459.363 108.599 460.267 108.953C461.211 109.307 462.136 109.484 463.04 109.484C464.299 109.484 465.322 109.169 466.108 108.54C466.895 107.95 467.603 106.947 468.232 105.531L468.35 105.236L454.603 73.258H464.102L473.011 94.793L481.979 73.258H490.829ZM530.587 72.786C534.52 72.786 537.687 73.966 540.086 76.326C542.525 78.686 543.744 82.1867 543.744 86.828V105H534.54V88.244C534.54 85.7267 533.989 83.8583 532.888 82.639C531.787 81.3803 530.194 80.751 528.109 80.751C525.788 80.751 523.94 81.4787 522.563 82.934C521.186 84.35 520.498 86.474 520.498 89.306V105H511.294V73.258H520.085V76.975C521.304 75.6377 522.819 74.615 524.628 73.907C526.437 73.1597 528.424 72.786 530.587 72.786ZM564.89 72.786C569.807 72.786 573.583 73.966 576.218 76.326C578.853 78.6467 580.171 82.167 580.171 86.887V105H571.557V101.047C569.826 103.997 566.601 105.472 561.881 105.472C559.442 105.472 557.318 105.059 555.509 104.233C553.739 103.407 552.382 102.266 551.438 100.811C550.494 99.3557 550.022 97.7037 550.022 95.855C550.022 92.905 551.123 90.5843 553.326 88.893C555.568 87.2017 559.01 86.356 563.651 86.356H570.967C570.967 84.35 570.357 82.816 569.138 81.754C567.919 80.6527 566.09 80.102 563.651 80.102C561.96 80.102 560.288 80.3773 558.636 80.928C557.023 81.4393 555.647 82.1473 554.506 83.052L551.202 76.621C552.933 75.4017 554.998 74.4577 557.397 73.789C559.836 73.1203 562.333 72.786 564.89 72.786ZM564.182 99.277C565.755 99.277 567.152 98.923 568.371 98.215C569.59 97.4677 570.456 96.386 570.967 94.97V91.725H564.654C560.878 91.725 558.99 92.964 558.99 95.442C558.99 96.622 559.442 97.566 560.347 98.274C561.291 98.9427 562.569 99.277 564.182 99.277ZM629.152 72.786C633.125 72.786 636.271 73.966 638.592 76.326C640.952 78.6467 642.132 82.1473 642.132 86.828V105H632.928V88.244C632.928 85.7267 632.397 83.8583 631.335 82.639C630.312 81.3803 628.837 80.751 626.91 80.751C624.747 80.751 623.036 81.459 621.777 82.875C620.518 84.2517 619.889 86.3167 619.889 89.07V105H610.685V88.244C610.685 83.2487 608.679 80.751 604.667 80.751C602.543 80.751 600.852 81.459 599.593 82.875C598.334 84.2517 597.705 86.3167 597.705 89.07V105H588.501V73.258H597.292V76.916C598.472 75.5787 599.908 74.556 601.599 73.848C603.33 73.14 605.218 72.786 607.263 72.786C609.505 72.786 611.531 73.2383 613.34 74.143C615.149 75.0083 616.605 76.2867 617.706 77.978C619.004 76.326 620.636 75.0477 622.603 74.143C624.609 73.2383 626.792 72.786 629.152 72.786ZM681.82 89.247C681.82 89.365 681.761 90.191 681.643 91.725H657.63C658.063 93.6917 659.086 95.2453 660.698 96.386C662.311 97.5267 664.317 98.097 666.716 98.097C668.368 98.097 669.824 97.861 671.082 97.389C672.38 96.8777 673.58 96.091 674.681 95.029L679.578 100.339C676.589 103.761 672.223 105.472 666.48 105.472C662.901 105.472 659.735 104.784 656.981 103.407C654.228 101.991 652.104 100.044 650.609 97.566C649.115 95.088 648.367 92.2757 648.367 89.129C648.367 86.0217 649.095 83.229 650.55 80.751C652.045 78.2337 654.071 76.2867 656.627 74.91C659.223 73.494 662.114 72.786 665.3 72.786C668.408 72.786 671.22 73.4547 673.737 74.792C676.255 76.1293 678.221 78.0567 679.637 80.574C681.093 83.052 681.82 85.943 681.82 89.247ZM665.359 79.748C663.275 79.748 661.524 80.338 660.108 81.518C658.692 82.698 657.827 84.3107 657.512 86.356H673.147C672.833 84.35 671.967 82.757 670.551 81.577C669.135 80.3577 667.405 79.748 665.359 79.748ZM704.657 73.258H713.861V105H704.657V73.258ZM709.259 68.833C707.568 68.833 706.191 68.3413 705.129 67.358C704.067 66.3747 703.536 65.1553 703.536 63.7C703.536 62.2447 704.067 61.0253 705.129 60.042C706.191 59.0587 707.568 58.567 709.259 58.567C710.951 58.567 712.327 59.039 713.389 59.983C714.451 60.927 714.982 62.107 714.982 63.523C714.982 65.057 714.451 66.3353 713.389 67.358C712.327 68.3413 710.951 68.833 709.259 68.833ZM733.082 105.472C730.447 105.472 727.871 105.157 725.353 104.528C722.836 103.859 720.83 103.033 719.335 102.05L722.403 95.442C723.819 96.3467 725.53 97.094 727.536 97.684C729.542 98.2347 731.509 98.51 733.436 98.51C737.33 98.51 739.277 97.5463 739.277 95.619C739.277 94.7143 738.746 94.0653 737.684 93.672C736.622 93.2787 734.99 92.9443 732.787 92.669C730.191 92.2757 728.048 91.8233 726.356 91.312C724.665 90.8007 723.19 89.896 721.931 88.598C720.712 87.3 720.102 85.4513 720.102 83.052C720.102 81.046 720.673 79.276 721.813 77.742C722.993 76.1687 724.685 74.9493 726.887 74.084C729.129 73.2187 731.765 72.786 734.793 72.786C737.035 72.786 739.258 73.0417 741.46 73.553C743.702 74.025 745.551 74.6937 747.006 75.559L743.938 82.108C741.146 80.5347 738.097 79.748 734.793 79.748C732.827 79.748 731.352 80.0233 730.368 80.574C729.385 81.1247 728.893 81.8327 728.893 82.698C728.893 83.6813 729.424 84.3697 730.486 84.763C731.548 85.1563 733.24 85.53 735.56 85.884C738.156 86.3167 740.28 86.7887 741.932 87.3C743.584 87.772 745.02 88.657 746.239 89.955C747.459 91.253 748.068 93.0623 748.068 95.383C748.068 97.3497 747.478 99.1 746.298 100.634C745.118 102.168 743.388 103.368 741.106 104.233C738.864 105.059 736.19 105.472 733.082 105.472ZM207.897 135.7H217.455V177H207.897V135.7ZM256.119 144.786C261.036 144.786 264.812 145.966 267.447 148.326C270.083 150.647 271.4 154.167 271.4 158.887V177H262.786V173.047C261.056 175.997 257.83 177.472 253.11 177.472C250.672 177.472 248.548 177.059 246.738 176.233C244.968 175.407 243.611 174.266 242.667 172.811C241.723 171.356 241.251 169.704 241.251 167.855C241.251 164.905 242.353 162.584 244.555 160.893C246.797 159.202 250.239 158.356 254.88 158.356H262.196C262.196 156.35 261.587 154.816 260.367 153.754C259.148 152.653 257.319 152.102 254.88 152.102C253.189 152.102 251.517 152.377 249.865 152.928C248.253 153.439 246.876 154.147 245.735 155.052L242.431 148.621C244.162 147.402 246.227 146.458 248.626 145.789C251.065 145.12 253.563 144.786 256.119 144.786ZM255.411 171.277C256.985 171.277 258.381 170.923 259.6 170.215C260.82 169.468 261.685 168.386 262.196 166.97V163.725H255.883C252.107 163.725 250.219 164.964 250.219 167.442C250.219 168.622 250.672 169.566 251.576 170.274C252.52 170.943 253.799 171.277 255.411 171.277ZM320.381 144.786C324.354 144.786 327.501 145.966 329.821 148.326C332.181 150.647 333.361 154.147 333.361 158.828V177H324.157V160.244C324.157 157.727 323.626 155.858 322.564 154.639C321.542 153.38 320.067 152.751 318.139 152.751C315.976 152.751 314.265 153.459 313.006 154.875C311.748 156.252 311.118 158.317 311.118 161.07V177H301.914V160.244C301.914 155.249 299.908 152.751 295.896 152.751C293.772 152.751 292.081 153.459 290.822 154.875C289.564 156.252 288.934 158.317 288.934 161.07V177H279.73V145.258H288.521V148.916C289.701 147.579 291.137 146.556 292.828 145.848C294.559 145.14 296.447 144.786 298.492 144.786C300.734 144.786 302.76 145.238 304.569 146.143C306.379 147.008 307.834 148.287 308.935 149.978C310.233 148.326 311.866 147.048 313.832 146.143C315.838 145.238 318.021 144.786 320.381 144.786ZM371.123 144.786C376.04 144.786 379.816 145.966 382.451 148.326C385.087 150.647 386.404 154.167 386.404 158.887V177H377.79V173.047C376.06 175.997 372.834 177.472 368.114 177.472C365.676 177.472 363.552 177.059 361.742 176.233C359.972 175.407 358.615 174.266 357.671 172.811C356.727 171.356 356.255 169.704 356.255 167.855C356.255 164.905 357.357 162.584 359.559 160.893C361.801 159.202 365.243 158.356 369.884 158.356H377.2C377.2 156.35 376.591 154.816 375.371 153.754C374.152 152.653 372.323 152.102 369.884 152.102C368.193 152.102 366.521 152.377 364.869 152.928C363.257 153.439 361.88 154.147 360.739 155.052L357.435 148.621C359.166 147.402 361.231 146.458 363.63 145.789C366.069 145.12 368.567 144.786 371.123 144.786ZM370.415 171.277C371.989 171.277 373.385 170.923 374.604 170.215C375.824 169.468 376.689 168.386 377.2 166.97V163.725H370.887C367.111 163.725 365.223 164.964 365.223 167.442C365.223 168.622 365.676 169.566 366.58 170.274C367.524 170.943 368.803 171.277 370.415 171.277ZM443.775 133.222V177H434.984V173.342C432.703 176.095 429.399 177.472 425.072 177.472C422.083 177.472 419.369 176.803 416.93 175.466C414.531 174.129 412.643 172.221 411.266 169.743C409.89 167.265 409.201 164.394 409.201 161.129C409.201 157.864 409.89 154.993 411.266 152.515C412.643 150.037 414.531 148.129 416.93 146.792C419.369 145.455 422.083 144.786 425.072 144.786C429.124 144.786 432.29 146.064 434.571 148.621V133.222H443.775ZM426.665 169.92C428.986 169.92 430.913 169.133 432.447 167.56C433.981 165.947 434.748 163.804 434.748 161.129C434.748 158.454 433.981 156.33 432.447 154.757C430.913 153.144 428.986 152.338 426.665 152.338C424.305 152.338 422.358 153.144 420.824 154.757C419.29 156.33 418.523 158.454 418.523 161.129C418.523 163.804 419.29 165.947 420.824 167.56C422.358 169.133 424.305 169.92 426.665 169.92ZM483.387 161.247C483.387 161.365 483.328 162.191 483.21 163.725H459.197C459.63 165.692 460.652 167.245 462.265 168.386C463.878 169.527 465.884 170.097 468.283 170.097C469.935 170.097 471.39 169.861 472.649 169.389C473.947 168.878 475.147 168.091 476.248 167.029L481.145 172.339C478.156 175.761 473.79 177.472 468.047 177.472C464.468 177.472 461.301 176.784 458.548 175.407C455.795 173.991 453.671 172.044 452.176 169.566C450.681 167.088 449.934 164.276 449.934 161.129C449.934 158.022 450.662 155.229 452.117 152.751C453.612 150.234 455.637 148.287 458.194 146.91C460.79 145.494 463.681 144.786 466.867 144.786C469.974 144.786 472.787 145.455 475.304 146.792C477.821 148.129 479.788 150.057 481.204 152.574C482.659 155.052 483.387 157.943 483.387 161.247ZM466.926 151.748C464.841 151.748 463.091 152.338 461.675 153.518C460.259 154.698 459.394 156.311 459.079 158.356H474.714C474.399 156.35 473.534 154.757 472.118 153.577C470.702 152.358 468.971 151.748 466.926 151.748ZM520.444 145.258L507.051 177H497.552L484.218 145.258H493.717L502.508 166.852L511.594 145.258H520.444ZM554.429 161.247C554.429 161.365 554.37 162.191 554.252 163.725H530.239C530.672 165.692 531.694 167.245 533.307 168.386C534.92 169.527 536.926 170.097 539.325 170.097C540.977 170.097 542.432 169.861 543.691 169.389C544.989 168.878 546.189 168.091 547.29 167.029L552.187 172.339C549.198 175.761 544.832 177.472 539.089 177.472C535.51 177.472 532.343 176.784 529.59 175.407C526.837 173.991 524.713 172.044 523.218 169.566C521.723 167.088 520.976 164.276 520.976 161.129C520.976 158.022 521.704 155.229 523.159 152.751C524.654 150.234 526.679 148.287 529.236 146.91C531.832 145.494 534.723 144.786 537.909 144.786C541.016 144.786 543.829 145.455 546.346 146.792C548.863 148.129 550.83 150.057 552.246 152.574C553.701 155.052 554.429 157.943 554.429 161.247ZM537.968 151.748C535.883 151.748 534.133 152.338 532.717 153.518C531.301 154.698 530.436 156.311 530.121 158.356H545.756C545.441 156.35 544.576 154.757 543.16 153.577C541.744 152.358 540.013 151.748 537.968 151.748ZM560.557 133.222H569.761V177H560.557V133.222ZM593.407 177.472C590.063 177.472 587.054 176.784 584.38 175.407C581.744 173.991 579.679 172.044 578.185 169.566C576.69 167.088 575.943 164.276 575.943 161.129C575.943 157.982 576.69 155.17 578.185 152.692C579.679 150.214 581.744 148.287 584.38 146.91C587.054 145.494 590.063 144.786 593.407 144.786C596.75 144.786 599.739 145.494 602.375 146.91C605.01 148.287 607.075 150.214 608.57 152.692C610.064 155.17 610.812 157.982 610.812 161.129C610.812 164.276 610.064 167.088 608.57 169.566C607.075 172.044 605.01 173.991 602.375 175.407C599.739 176.784 596.75 177.472 593.407 177.472ZM593.407 169.92C595.767 169.92 597.694 169.133 599.189 167.56C600.723 165.947 601.49 163.804 601.49 161.129C601.49 158.454 600.723 156.33 599.189 154.757C597.694 153.144 595.767 152.338 593.407 152.338C591.047 152.338 589.1 153.144 587.566 154.757C586.032 156.33 585.265 158.454 585.265 161.129C585.265 163.804 586.032 165.947 587.566 167.56C589.1 169.133 591.047 169.92 593.407 169.92ZM635.726 144.786C638.676 144.786 641.35 145.474 643.75 146.851C646.188 148.188 648.096 150.096 649.473 152.574C650.849 155.013 651.538 157.864 651.538 161.129C651.538 164.394 650.849 167.265 649.473 169.743C648.096 172.182 646.188 174.089 643.75 175.466C641.35 176.803 638.676 177.472 635.726 177.472C631.674 177.472 628.488 176.194 626.168 173.637V188.446H616.964V145.258H625.755V148.916C628.036 146.163 631.36 144.786 635.726 144.786ZM634.133 169.92C636.493 169.92 638.42 169.133 639.915 167.56C641.449 165.947 642.216 163.804 642.216 161.129C642.216 158.454 641.449 156.33 639.915 154.757C638.42 153.144 636.493 152.338 634.133 152.338C631.773 152.338 629.826 153.144 628.292 154.757C626.797 156.33 626.05 158.454 626.05 161.129C626.05 163.804 626.797 165.947 628.292 167.56C629.826 169.133 631.773 169.92 634.133 169.92ZM688.792 161.247C688.792 161.365 688.733 162.191 688.615 163.725H664.602C665.035 165.692 666.058 167.245 667.67 168.386C669.283 169.527 671.289 170.097 673.688 170.097C675.34 170.097 676.796 169.861 678.054 169.389C679.352 168.878 680.552 168.091 681.653 167.029L686.55 172.339C683.561 175.761 679.195 177.472 673.452 177.472C669.873 177.472 666.707 176.784 663.953 175.407C661.2 173.991 659.076 172.044 657.581 169.566C656.087 167.088 655.339 164.276 655.339 161.129C655.339 158.022 656.067 155.229 657.522 152.751C659.017 150.234 661.043 148.287 663.599 146.91C666.195 145.494 669.086 144.786 672.272 144.786C675.38 144.786 678.192 145.455 680.709 146.792C683.227 148.129 685.193 150.057 686.609 152.574C688.065 155.052 688.792 157.943 688.792 161.247ZM672.331 151.748C670.247 151.748 668.496 152.338 667.08 153.518C665.664 154.698 664.799 156.311 664.484 158.356H680.119C679.805 156.35 678.939 154.757 677.523 153.577C676.107 152.358 674.377 151.748 672.331 151.748ZM703.711 149.447C704.812 147.913 706.287 146.753 708.136 145.966C710.024 145.179 712.187 144.786 714.626 144.786V153.282C713.603 153.203 712.915 153.164 712.561 153.164C709.926 153.164 707.861 153.911 706.366 155.406C704.871 156.861 704.124 159.064 704.124 162.014V177H694.92V145.258H703.711V149.447ZM723.234 177.472C721.621 177.472 720.264 176.921 719.163 175.82C718.062 174.719 717.511 173.342 717.511 171.69C717.511 169.999 718.062 168.642 719.163 167.619C720.264 166.557 721.621 166.026 723.234 166.026C724.847 166.026 726.204 166.557 727.305 167.619C728.406 168.642 728.957 169.999 728.957 171.69C728.957 173.342 728.406 174.719 727.305 175.82C726.204 176.921 724.847 177.472 723.234 177.472ZM735.843 133.222H744.28V188.446H735.843V133.222Z" fill="#272341"/>
<path d="M780.663 71.37V82.285H799.779V89.955H780.663V105H771.105V63.7H802.316V71.37H780.663ZM820.076 72.786C824.993 72.786 828.769 73.966 831.404 76.326C834.04 78.6467 835.357 82.167 835.357 86.887V105H826.743V101.047C825.013 103.997 821.787 105.472 817.067 105.472C814.629 105.472 812.505 105.059 810.695 104.233C808.925 103.407 807.568 102.266 806.624 100.811C805.68 99.3557 805.208 97.7037 805.208 95.855C805.208 92.905 806.31 90.5843 808.512 88.893C810.754 87.2017 814.196 86.356 818.837 86.356H826.153C826.153 84.35 825.544 82.816 824.324 81.754C823.105 80.6527 821.276 80.102 818.837 80.102C817.146 80.102 815.474 80.3773 813.822 80.928C812.21 81.4393 810.833 82.1473 809.692 83.052L806.388 76.621C808.119 75.4017 810.184 74.4577 812.583 73.789C815.022 73.1203 817.52 72.786 820.076 72.786ZM819.368 99.277C820.942 99.277 822.338 98.923 823.557 98.215C824.777 97.4677 825.642 96.386 826.153 94.97V91.725H819.84C816.064 91.725 814.176 92.964 814.176 95.442C814.176 96.622 814.629 97.566 815.533 98.274C816.477 98.9427 817.756 99.277 819.368 99.277ZM862.98 72.786C866.914 72.786 870.08 73.966 872.479 76.326C874.918 78.686 876.137 82.1867 876.137 86.828V105H866.933V88.244C866.933 85.7267 866.383 83.8583 865.281 82.639C864.18 81.3803 862.587 80.751 860.502 80.751C858.182 80.751 856.333 81.4787 854.956 82.934C853.58 84.35 852.891 86.474 852.891 89.306V105H843.687V61.222H852.891V76.562C854.111 75.3427 855.586 74.4183 857.316 73.789C859.047 73.1203 860.935 72.786 862.98 72.786ZM925.131 72.786C929.104 72.786 932.251 73.966 934.571 76.326C936.931 78.6467 938.111 82.1473 938.111 86.828V105H928.907V88.244C928.907 85.7267 928.376 83.8583 927.314 82.639C926.292 81.3803 924.817 80.751 922.889 80.751C920.726 80.751 919.015 81.459 917.756 82.875C916.498 84.2517 915.868 86.3167 915.868 89.07V105H906.664V88.244C906.664 83.2487 904.658 80.751 900.646 80.751C898.522 80.751 896.831 81.459 895.572 82.875C894.314 84.2517 893.684 86.3167 893.684 89.07V105H884.48V73.258H893.271V76.916C894.451 75.5787 895.887 74.556 897.578 73.848C899.309 73.14 901.197 72.786 903.242 72.786C905.484 72.786 907.51 73.2383 909.319 74.143C911.129 75.0083 912.584 76.2867 913.685 77.978C914.983 76.326 916.616 75.0477 918.582 74.143C920.588 73.2383 922.771 72.786 925.131 72.786ZM946.361 73.258H955.565V105H946.361V73.258ZM950.963 68.833C949.272 68.833 947.895 68.3413 946.833 67.358C945.771 66.3747 945.24 65.1553 945.24 63.7C945.24 62.2447 945.771 61.0253 946.833 60.042C947.895 59.0587 949.272 58.567 950.963 58.567C952.655 58.567 954.031 59.039 955.093 59.983C956.155 60.927 956.686 62.107 956.686 63.523C956.686 65.057 956.155 66.3353 955.093 67.358C954.031 68.3413 952.655 68.833 950.963 68.833ZM983.4 72.786C987.334 72.786 990.5 73.966 992.899 76.326C995.338 78.686 996.557 82.1867 996.557 86.828V105H987.353V88.244C987.353 85.7267 986.803 83.8583 985.701 82.639C984.6 81.3803 983.007 80.751 980.922 80.751C978.602 80.751 976.753 81.4787 975.376 82.934C974 84.35 973.311 86.474 973.311 89.306V105H964.107V73.258H972.898V76.975C974.118 75.6377 975.632 74.615 977.441 73.907C979.251 73.1597 981.237 72.786 983.4 72.786Z" fill="url(#paint0_linear)"/>
<rect x="204" y="230" width="182" height="45" stroke="url(#paint1_linear)" stroke-width="2"/>
<path d="M234.754 260L231.244 254.93H231.036H227.37V260H223.158V241.8H231.036C232.648 241.8 234.043 242.069 235.222 242.606C236.418 243.143 237.337 243.906 237.978 244.894C238.619 245.882 238.94 247.052 238.94 248.404C238.94 249.756 238.611 250.926 237.952 251.914C237.311 252.885 236.392 253.63 235.196 254.15L239.278 260H234.754ZM234.676 248.404C234.676 247.381 234.347 246.601 233.688 246.064C233.029 245.509 232.067 245.232 230.802 245.232H227.37V251.576H230.802C232.067 251.576 233.029 251.299 233.688 250.744C234.347 250.189 234.676 249.409 234.676 248.404ZM255.693 253.058C255.693 253.11 255.667 253.474 255.615 254.15H245.033C245.224 255.017 245.674 255.701 246.385 256.204C247.096 256.707 247.98 256.958 249.037 256.958C249.765 256.958 250.406 256.854 250.961 256.646C251.533 256.421 252.062 256.074 252.547 255.606L254.705 257.946C253.388 259.454 251.464 260.208 248.933 260.208C247.356 260.208 245.96 259.905 244.747 259.298C243.534 258.674 242.598 257.816 241.939 256.724C241.28 255.632 240.951 254.393 240.951 253.006C240.951 251.637 241.272 250.406 241.913 249.314C242.572 248.205 243.464 247.347 244.591 246.74C245.735 246.116 247.009 245.804 248.413 245.804C249.782 245.804 251.022 246.099 252.131 246.688C253.24 247.277 254.107 248.127 254.731 249.236C255.372 250.328 255.693 251.602 255.693 253.058ZM248.439 248.872C247.52 248.872 246.749 249.132 246.125 249.652C245.501 250.172 245.12 250.883 244.981 251.784H251.871C251.732 250.9 251.351 250.198 250.727 249.678C250.103 249.141 249.34 248.872 248.439 248.872ZM263.655 245.804C265.821 245.804 267.485 246.324 268.647 247.364C269.808 248.387 270.389 249.938 270.389 252.018V260H266.593V258.258C265.83 259.558 264.409 260.208 262.329 260.208C261.254 260.208 260.318 260.026 259.521 259.662C258.741 259.298 258.143 258.795 257.727 258.154C257.311 257.513 257.103 256.785 257.103 255.97C257.103 254.67 257.588 253.647 258.559 252.902C259.547 252.157 261.063 251.784 263.109 251.784H266.333C266.333 250.9 266.064 250.224 265.527 249.756C264.989 249.271 264.183 249.028 263.109 249.028C262.363 249.028 261.627 249.149 260.899 249.392C260.188 249.617 259.581 249.929 259.079 250.328L257.623 247.494C258.385 246.957 259.295 246.541 260.353 246.246C261.427 245.951 262.528 245.804 263.655 245.804ZM263.343 257.478C264.036 257.478 264.651 257.322 265.189 257.01C265.726 256.681 266.107 256.204 266.333 255.58V254.15H263.551C261.887 254.15 261.055 254.696 261.055 255.788C261.055 256.308 261.254 256.724 261.653 257.036C262.069 257.331 262.632 257.478 263.343 257.478ZM288.46 240.708V260H284.586V258.388C283.581 259.601 282.125 260.208 280.218 260.208C278.901 260.208 277.705 259.913 276.63 259.324C275.573 258.735 274.741 257.894 274.134 256.802C273.527 255.71 273.224 254.445 273.224 253.006C273.224 251.567 273.527 250.302 274.134 249.21C274.741 248.118 275.573 247.277 276.63 246.688C277.705 246.099 278.901 245.804 280.218 245.804C282.003 245.804 283.399 246.367 284.404 247.494V240.708H288.46ZM280.92 256.88C281.943 256.88 282.792 256.533 283.468 255.84C284.144 255.129 284.482 254.185 284.482 253.006C284.482 251.827 284.144 250.891 283.468 250.198C282.792 249.487 281.943 249.132 280.92 249.132C279.88 249.132 279.022 249.487 278.346 250.198C277.67 250.891 277.332 251.827 277.332 253.006C277.332 254.185 277.67 255.129 278.346 255.84C279.022 256.533 279.88 256.88 280.92 256.88ZM317.491 245.804C319.242 245.804 320.628 246.324 321.651 247.364C322.691 248.387 323.211 249.929 323.211 251.992V260H319.155V252.616C319.155 251.507 318.921 250.683 318.453 250.146C318.002 249.591 317.352 249.314 316.503 249.314C315.55 249.314 314.796 249.626 314.241 250.25C313.686 250.857 313.409 251.767 313.409 252.98V260H309.353V252.616C309.353 250.415 308.469 249.314 306.701 249.314C305.765 249.314 305.02 249.626 304.465 250.25C303.91 250.857 303.633 251.767 303.633 252.98V260H299.577V246.012H303.451V247.624C303.971 247.035 304.604 246.584 305.349 246.272C306.112 245.96 306.944 245.804 307.845 245.804C308.833 245.804 309.726 246.003 310.523 246.402C311.32 246.783 311.962 247.347 312.447 248.092C313.019 247.364 313.738 246.801 314.605 246.402C315.489 246.003 316.451 245.804 317.491 245.804ZM333.655 260.208C332.182 260.208 330.856 259.905 329.677 259.298C328.516 258.674 327.606 257.816 326.947 256.724C326.288 255.632 325.959 254.393 325.959 253.006C325.959 251.619 326.288 250.38 326.947 249.288C327.606 248.196 328.516 247.347 329.677 246.74C330.856 246.116 332.182 245.804 333.655 245.804C335.128 245.804 336.446 246.116 337.607 246.74C338.768 247.347 339.678 248.196 340.337 249.288C340.996 250.38 341.325 251.619 341.325 253.006C341.325 254.393 340.996 255.632 340.337 256.724C339.678 257.816 338.768 258.674 337.607 259.298C336.446 259.905 335.128 260.208 333.655 260.208ZM333.655 256.88C334.695 256.88 335.544 256.533 336.203 255.84C336.879 255.129 337.217 254.185 337.217 253.006C337.217 251.827 336.879 250.891 336.203 250.198C335.544 249.487 334.695 249.132 333.655 249.132C332.615 249.132 331.757 249.487 331.081 250.198C330.405 250.891 330.067 251.827 330.067 253.006C330.067 254.185 330.405 255.129 331.081 255.84C331.757 256.533 332.615 256.88 333.655 256.88ZM347.91 247.858C348.395 247.182 349.045 246.671 349.86 246.324C350.692 245.977 351.645 245.804 352.72 245.804V249.548C352.269 249.513 351.966 249.496 351.81 249.496C350.649 249.496 349.739 249.825 349.08 250.484C348.421 251.125 348.092 252.096 348.092 253.396V260H344.036V246.012H347.91V247.858ZM368.707 253.058C368.707 253.11 368.681 253.474 368.629 254.15H358.047C358.237 255.017 358.688 255.701 359.399 256.204C360.109 256.707 360.993 256.958 362.051 256.958C362.779 256.958 363.42 256.854 363.975 256.646C364.547 256.421 365.075 256.074 365.561 255.606L367.719 257.946C366.401 259.454 364.477 260.208 361.947 260.208C360.369 260.208 358.974 259.905 357.761 259.298C356.547 258.674 355.611 257.816 354.953 256.724C354.294 255.632 353.965 254.393 353.965 253.006C353.965 251.637 354.285 250.406 354.927 249.314C355.585 248.205 356.478 247.347 357.605 246.74C358.749 246.116 360.023 245.804 361.427 245.804C362.796 245.804 364.035 246.099 365.145 246.688C366.254 247.277 367.121 248.127 367.745 249.236C368.386 250.328 368.707 251.602 368.707 253.058ZM361.453 248.872C360.534 248.872 359.763 249.132 359.139 249.652C358.515 250.172 358.133 250.883 357.995 251.784H364.885C364.746 250.9 364.365 250.198 363.741 249.678C363.117 249.141 362.354 248.872 361.453 248.872Z" fill="url(#paint2_linear)"/>
<defs>
<linearGradient id="paint0_linear" x1="602" y1="48" x2="602" y2="192" gradientUnits="userSpaceOnUse">
<stop stop-color="#02AAB0"/>
<stop offset="1" stop-color="#00CDAC"/>
</linearGradient>
<linearGradient id="paint1_linear" x1="210" y1="229" x2="383" y2="269.5" gradientUnits="userSpaceOnUse">
<stop stop-color="#02AAB0"/>
<stop offset="1" stop-color="#00CDAC"/>
</linearGradient>
<linearGradient id="paint2_linear" x1="221" y1="242.5" x2="365.5" y2="260" gradientUnits="userSpaceOnUse">
<stop stop-color="#02AAB0"/>
<stop offset="1" stop-color="#00CDAC"/>
</linearGradient>
</defs>
</svg>
